# xmcd CD database file
#
# Track frame offsets:
#	150
#	20555
#	36185
#	60357
#	75361
#	92097
#	114899
#	140332
#	159659
#	178559
#
# Disc length: 2567 seconds
#
# Revision: 0
# Processed by: cddbd v1.5.2PL0 Copyright (c) Steve Scherf et al.
# Submitted via: CDex 1.70beta2
#
DISCID=6f0a050a
DTITLE=Erika Desocio - Woulen't You Like To Know
DYEAR=2008
DGENRE=Blues
TTITLE0=Stuck
TTITLE1=Best Friend
TTITLE2=Lady of Pain
TTITLE3=Hold On
TTITLE4=Getaway
TTITLE5=Still 
TTITLE6=Out Of My Mind
TTITLE7=Remember When
TTITLE8=Hold My Hand
TTITLE9=Girls
EXTD=YEAR: 2008
EXTT0=
EXTT1=
EXTT2=
EXTT3=
EXTT4=
EXTT5=
EXTT6=
EXTT7=
EXTT8=
EXTT9=
PLAYORDER=
